HIERARCHY
ROOT joint_Root
{
	OFFSET 0.0 0.0 0.0
	CHANNELS 6 Xposition Yposition Zposition Zrotation Xrotation Yrotation 
	JOINT Hips
	{
		OFFSET 4.5925 91.4895 -427.239
		CHANNELS 6 Xposition Yposition Zposition Zrotation Xrotation Yrotation 
		JOINT Spine
		{
			OFFSET 15.7357 0.0 0.0
			CHANNELS 6 Xposition Yposition Zposition Zrotation Xrotation Yrotation 
			JOINT Chest
			{
				OFFSET 8.98455 -0.406207 0.0
				CHANNELS 6 Xposition Yposition Zposition Zrotation Xrotation Yrotation 
				JOINT Neck
				{
					OFFSET 16.3773 0.0 0.0
					CHANNELS 6 Xposition Yposition Zposition Zrotation Xrotation Yrotation 
					JOINT Head
					{
						OFFSET 6.45672 0.0 0.0
						CHANNELS 6 Xposition Yposition Zposition Zrotation Xrotation Yrotation 
						End Site
						{
							OFFSET 0.0 0.0 0.0
						}
					}
				}
				JOINT Shoulder_L
				{
					OFFSET 12.9942 -0.242716 4.98039
					CHANNELS 6 Xposition Yposition Zposition Zrotation Xrotation Yrotation 
					JOINT UpperArm_L
					{
						OFFSET 5.34809 0.0 0.0
						CHANNELS 6 Xposition Yposition Zposition Zrotation Xrotation Yrotation 
						JOINT LowerArm_L
						{
							OFFSET 24.3286 1.87007e-05 0.0
							CHANNELS 6 Xposition Yposition Zposition Zrotation Xrotation Yrotation 
							JOINT Hand_L
							{
								OFFSET 22.2916 0.0 0.0
								CHANNELS 6 Xposition Yposition Zposition Zrotation Xrotation Yrotation 
								End Site
								{
									OFFSET 0.0 0.0 0.0
								}
							}
						}
					}
				}
				JOINT Shoulder_R
				{
					OFFSET 12.9945 -0.242716 -4.98039
					CHANNELS 6 Xposition Yposition Zposition Zrotation Xrotation Yrotation 
					JOINT UpperArm_R
					{
						OFFSET -5.34813 0.0 0.0
						CHANNELS 6 Xposition Yposition Zposition Zrotation Xrotation Yrotation 
						JOINT LowerArm_R
						{
							OFFSET -24.3289 0.000322201 0.0
							CHANNELS 6 Xposition Yposition Zposition Zrotation Xrotation Yrotation 
							JOINT Hand_R
							{
								OFFSET -22.2915 -0.000108084 0.0
								CHANNELS 6 Xposition Yposition Zposition Zrotation Xrotation Yrotation 
								End Site
								{
									OFFSET 0.0 0.0 0.0
								}
							}
						}
					}
				}
			}
		}
		JOINT UpperLeg_L
		{
			OFFSET -2.19248 -6.46944 0.0
			CHANNELS 6 Xposition Yposition Zposition Zrotation Xrotation Yrotation 
			JOINT LowerLeg_L
			{
				OFFSET 39.0811 0.0 -1.23785e-05
				CHANNELS 6 Xposition Yposition Zposition Zrotation Xrotation Yrotation 
				JOINT Foot_L
				{
					OFFSET 40.9854 0.0 -1.26872e-05
					CHANNELS 6 Xposition Yposition Zposition Zrotation Xrotation Yrotation 
					JOINT Toes_L
					{
						OFFSET 11.7543 0.0 0.0
						CHANNELS 6 Xposition Yposition Zposition Zrotation Xrotation Yrotation 
						End Site
						{
							OFFSET 0.0 0.0 0.0
						}
					}
				}
			}
		}
		JOINT UpperLeg_R
		{
			OFFSET -2.19251 6.46944 0.0
			CHANNELS 6 Xposition Yposition Zposition Zrotation Xrotation Yrotation 
			JOINT LowerLeg_R
			{
				OFFSET -39.0811 -0.00228153 -0.0401928
				CHANNELS 6 Xposition Yposition Zposition Zrotation Xrotation Yrotation 
				JOINT Foot_R
				{
					OFFSET -40.9854 0.0 0.0
					CHANNELS 6 Xposition Yposition Zposition Zrotation Xrotation Yrotation 
					JOINT Toes_R
					{
						OFFSET -11.7543 0.0 0.0
						CHANNELS 6 Xposition Yposition Zposition Zrotation Xrotation Yrotation 
						End Site
						{
							OFFSET 0.0 0.0 0.0
						}
					}
				}
			}
		}
	}
}
MOTION
Frames:	4
Frame Time:	0.0333333
0.000000 0.000000 0.000000 0.000000 0.000000 -0.000000 -1.158330 90.895800 -3.231280 89.923200 -1.775560 9.836130 15.735700 0.000005 -0.000001 85.702900 78.671000 -86.247000 8.984550 -0.406207 -0.000000 14.825000 -1.709370 -0.866492 16.377300 -0.000001 -0.000001 20.686600 -3.758420 3.068320 6.456720 -0.000001 -0.000000 -4.422560 -3.539040 0.400867 12.994200 -0.242716 4.980390 -88.976200 -3.193070 -72.212400 5.348090 -0.000007 -0.000001 -75.759400 -3.837250 -76.140700 24.328600 0.000019 0.000005 45.014000 -13.388200 -103.031000 22.291600 -0.000001 0.000005 23.191900 5.084400 5.468590 12.994500 -0.242716 -4.980390 90.052500 -0.223292 -76.776800 -5.348130 -0.000001 -0.000004 -68.991100 -6.944720 -75.365900 -24.328900 0.000322 -0.000009 23.564000 -7.675450 -107.026000 -22.291500 -0.000108 -0.000004 26.652300 5.339150 -1.054370 -2.192480 -6.469440 -0.000000 -175.736000 -12.840400 -3.481900 39.081100 -0.000007 -0.000012 -0.150099 0.245762 31.414700 40.985400 -0.000006 -0.000013 0.989272 6.191220 -68.014500 11.754300 -0.000000 0.000003 -0.000168 -0.001601 -16.638200 -2.192510 6.469440 -0.000001 174.691000 21.585700 178.365000 -39.081100 -0.002282 -0.040193 -0.191874 0.324211 31.048100 -40.985400 0.000008 0.000006 4.586490 14.372500 -69.561200 -11.754300 -0.000006 -0.000006 -0.002488 -0.034671 -17.983000
0.000000 0.000000 0.000000 0.000000 0.000000 -0.000000 -1.138190 90.899600 -3.225080 89.919100 -1.801460 9.752980 15.735700 0.000005 -0.000001 85.757200 78.685600 -86.295000 8.984550 -0.406207 -0.000000 14.797600 -1.685660 -0.857467 16.377300 -0.000001 -0.000001 20.464300 -3.744360 3.048670 6.456720 -0.000001 -0.000000 -4.492630 -3.544650 0.380982 12.994200 -0.242716 4.980390 -88.973100 -3.204940 -72.222500 5.348090 -0.000007 -0.000001 -75.751200 -3.729340 -76.263600 24.328600 0.000019 0.000005 44.964200 -13.272500 -102.946000 22.291600 -0.000001 0.000005 23.211400 5.081860 5.526260 12.994500 -0.242716 -4.980390 90.045800 -0.194842 -76.766300 -5.348130 -0.000001 -0.000004 -68.942600 -6.873230 -75.461700 -24.328900 0.000322 -0.000009 23.403700 -7.614110 -107.021000 -22.291500 -0.000108 -0.000004 26.712000 5.341450 -1.122530 -2.192480 -6.469440 -0.000000 -175.761000 -12.839200 -3.558990 39.081100 -0.000007 -0.000012 -0.152065 0.249112 31.401300 40.985400 -0.000006 -0.000013 0.992932 6.172160 -68.010700 11.754300 -0.000000 0.000003 -0.000176 -0.001666 -16.640600 -2.192510 6.469440 -0.000001 174.703000 21.616700 178.292000 -39.081100 -0.002282 -0.040193 -0.193162 0.326749 31.017100 -40.985400 0.000008 0.000006 4.517120 14.436900 -69.524500 -11.754300 -0.000006 -0.000006 -0.002578 -0.035732 -18.026100
0.000000 0.000000 0.000000 0.000000 0.000000 -0.000000 -1.125880 90.911500 -3.213530 89.891800 -1.820260 9.688000 15.735700 0.000005 -0.000001 85.782100 78.695000 -86.304700 8.984550 -0.406207 -0.000000 14.779600 -1.673640 -0.828816 16.377300 -0.000001 -0.000001 20.294600 -3.744080 3.008640 6.456720 -0.000001 -0.000000 -4.726150 -3.534940 0.368244 12.994200 -0.242716 4.980390 -88.987000 -3.153150 -72.178800 5.348090 -0.000007 -0.000001 -75.658100 -3.547050 -76.495200 24.328600 0.000019 0.000005 44.977900 -13.103500 -102.783000 22.291600 -0.000001 0.000005 23.148800 5.078430 5.603880 12.994500 -0.242716 -4.980390 90.050300 -0.214246 -76.791000 -5.348130 -0.000001 -0.000004 -68.956700 -6.838260 -75.511500 -24.328900 0.000322 -0.000009 23.325200 -7.598580 -107.049000 -22.291500 -0.000108 -0.000004 26.742800 5.344160 -1.202830 -2.192480 -6.469440 -0.000000 -175.755000 -12.878200 -3.581310 39.081100 -0.000007 -0.000012 -0.150295 0.246667 31.354400 40.985400 -0.000006 -0.000013 1.003680 6.169450 -68.007100 11.754300 -0.000000 0.000003 -0.000168 -0.001599 -16.638200 -2.192510 6.469440 -0.000001 174.736000 21.670700 178.275000 -39.081100 -0.002282 -0.040193 -0.188751 0.320387 30.940100 -40.985400 0.000008 0.000006 4.537060 14.492300 -69.500400 -11.754300 -0.000006 -0.000006 -0.002614 -0.036150 -18.043100
0.000000 0.000000 0.000000 0.000000 0.000000 -0.000000 -1.113510 90.917900 -3.202760 89.882200 -1.805810 9.592000 15.735700 0.000005 -0.000001 85.745300 78.708500 -86.255200 8.984550 -0.406207 -0.000000 14.751900 -1.685160 -0.802430 16.377300 -0.000001 -0.000001 20.100100 -3.747720 2.974110 6.456720 -0.000001 -0.000000 -5.024360 -3.527250 0.317276 12.994200 -0.242716 4.980390 -88.996000 -3.114650 -72.123100 5.348090 -0.000007 -0.000001 -75.540000 -3.325060 -76.736200 24.328600 0.000019 0.000005 44.997800 -12.932400 -102.616000 22.291600 -0.000001 0.000005 23.166000 5.080220 5.563490 12.994500 -0.242716 -4.980390 90.050800 -0.216057 -76.760400 -5.348130 -0.000001 -0.000004 -68.959800 -6.746900 -75.611600 -24.328900 0.000322 -0.000009 23.290800 -7.575620 -107.027000 -22.291500 -0.000108 -0.000004 26.869600 5.345560 -1.244680 -2.192480 -6.469440 -0.000000 -175.775000 -12.870700 -3.666290 39.081100 -0.000007 -0.000012 -0.149387 0.245413 31.329800 40.985400 -0.000006 -0.000013 1.012480 6.182980 -67.998500 11.754300 -0.000000 0.000003 -0.000178 -0.001679 -16.641100 -2.192510 6.469440 -0.000001 174.765000 21.713300 178.198000 -39.081100 -0.002282 -0.040193 -0.190363 0.323539 30.904000 -40.985400 0.000008 0.000006 4.539180 14.499200 -69.486800 -11.754300 -0.000006 -0.000006 -0.002516 -0.035000 -17.996400
